<svg id="Capa_1" enable-background="new 0 0 511.145 511.145" height="512" viewBox="0 0 511.145 511.145" width="512" xmlns="http://www.w3.org/2000/svg"><g><g><path d="m140.126 275.146 78.118 202.874c13.157 34.169 61.5 34.169 74.656 0l78.119-202.874z" fill="#f9ed80"/></g><g><path d="m220.126 275.146h-80l78.118 202.874c13.157 34.169 61.5 34.169 74.656 0l2.672-6.939z" fill="#f9d888"/></g><g><path d="m284.039 7.559-20.992 1.615c-32.431 2.495-57.474 29.538-57.474 62.065v18.51h37.751c34.379 0 62.249-27.87 62.249-62.249 0-11.65-9.918-20.835-21.534-19.941z" fill="#ffc8e5"/></g><g><path d="m255.573 71.239c0-27.403 17.776-50.912 42.768-59.131-3.844-3.191-8.888-4.966-14.302-4.549l-20.992 1.615c-32.431 2.495-57.474 29.538-57.474 62.065v18.51h37.751c4.193 0 8.288-.421 12.249-1.212z" fill="#ffb3dd"/></g><g><path d="m302.505 62.292-100 7.692c-20.84 1.603-36.932 18.981-36.932 39.882v26.036h180v-33.728c0-23.3-19.836-41.669-43.068-39.882z" fill="#e7886e"/></g><g><path d="m281.742 63.889-79.237 6.095c-20.84 1.603-36.932 18.981-36.932 39.882v26.036h80v-32.208c0-20.644 15.702-37.84 36.169-39.805z" fill="#e27858"/></g><g><path d="m125.573 205.902v-42.959c0-20.901 16.092-38.279 36.932-39.882l180-13.846c23.232-1.787 43.068 16.582 43.068 39.882v56.805z" fill="#ffc8e5"/></g><g><path d="m239.903 117.108-77.398 5.954c-20.84 1.603-36.932 18.981-36.932 39.882v42.959h80v-49.208c0-20.022 14.769-36.8 34.33-39.587z" fill="#ffb3dd"/></g><g><path d="m105.573 275.902c0-16.569 13.431-30 30-30h240c16.569 0 30 13.431 30 30 0 16.569-13.431 30-30 30h-240c-16.569 0-30-13.431-30-30z" fill="#f9d888"/></g><g><path d="m185.573 275.902c0-16.569 13.431-30 30-30h-80c-16.569 0-30 13.431-30 30s13.431 30 30 30h80c-16.569 0-30-13.431-30-30z" fill="#fccb88"/></g><g><path d="m75.573 225.902c0-16.569 13.431-30 30-30h300c16.569 0 30 13.431 30 30 0 16.569-13.431 30-30 30h-300c-16.569 0-30-13.431-30-30z" fill="#f9ed80"/></g><g><path d="m155.573 225.902c0-16.569 13.431-30 30-30h-80c-16.569 0-30 13.431-30 30s13.431 30 30 30h80c-16.569 0-30-13.431-30-30z" fill="#f9d888"/></g><g><circle cx="292.037" cy="347.502" fill="#f9d888" r="15"/></g><g><circle cx="217.849" cy="367.502" fill="#fccb88" r="15"/></g><g><circle cx="255.573" cy="441.805" fill="#fccb88" r="10"/></g><g><path d="m443.073 225.902c0-20.678-16.822-37.5-37.5-37.5h-12.5v-39.305c0-13.188-5.55-25.892-15.227-34.852-6.921-6.408-15.587-10.552-24.773-12.03v-.042c0-13.188-5.55-25.891-15.227-34.852-8.294-7.682-19.097-12.118-30.298-12.593 3.631-8.551 5.524-17.773 5.524-27.23 0-7.635-3.213-14.99-8.815-20.177-5.602-5.188-13.182-7.83-20.794-7.242l-20.991 1.615c-33.558 2.583-60.016 28.404-63.902 61.206-22.963 3.437-40.497 23.438-40.497 46.966v6.186c-22.719 3.648-40 23.532-40 46.892v25.458h-12.5c-20.678 0-37.5 16.822-37.5 37.5 0 18.906 14.066 34.581 32.281 37.129-1.495 4.093-2.281 8.446-2.281 12.871 0 20.678 16.822 37.5 37.5 37.5h11.248l64.425 167.312c7.228 18.771 24.213 30.432 44.327 30.432s37.1-11.661 44.327-30.432l64.425-167.312h11.248c20.678 0 37.5-16.822 37.5-37.5 0-4.427-.787-8.78-2.282-12.871 18.215-2.548 32.282-18.222 32.282-37.129zm-179.451-209.25 20.991-1.615c3.508-.273 6.868.898 9.452 3.292 2.584 2.393 4.007 5.65 4.007 9.171 0 10.027-2.704 19.713-7.829 28.213l-76.32 5.871c4.287-24.253 24.427-42.988 49.699-44.932zm-130.549 146.292c0-16.876 13.181-31.11 30.007-32.404l97.287-7.483c4.13-.318 7.221-3.923 6.902-8.053-.317-4.129-3.908-7.227-8.053-6.903l-86.144 6.626v-4.86c0-16.876 13.181-31.11 30.008-32.404l100-7.692c9.132-.704 17.855 2.337 24.574 8.558 6.683 6.189 10.377 14.603 10.415 23.706l-48.941 3.765c-4.13.318-7.221 3.923-6.902 8.053.317 4.129 3.912 7.23 8.053 6.903l52.802-4.062c9.131-.701 17.856 2.337 24.574 8.558s10.418 14.69 10.418 23.846v39.305h-245zm242.5 135.458h-68.536c-4.143 0-7.5 3.358-7.5 7.5s3.357 7.5 7.5 7.5h41.215l-62.35 161.922c-5.911 15.352-19.543 20.821-30.329 20.821s-24.418-5.47-30.329-20.821l-62.35-161.922h114.143c4.143 0 7.5-3.358 7.5-7.5s-3.357-7.5-7.5-7.5h-141.464c-12.406 0-22.5-10.093-22.5-22.5 0-4.474 1.351-8.818 3.814-12.5h277.371c2.463 3.682 3.815 8.023 3.815 12.5 0 12.407-10.094 22.5-22.5 22.5zm30-50h-300c-12.406 0-22.5-10.093-22.5-22.5s10.094-22.5 22.5-22.5h300c12.406 0 22.5 10.093 22.5 22.5s-10.094 22.5-22.5 22.5z"/><path d="m193.124 142.427c-4.143 0-7.5 3.358-7.5 7.5v12c0 4.142 3.357 7.5 7.5 7.5s7.5-3.358 7.5-7.5v-12c0-4.142-3.357-7.5-7.5-7.5z"/><path d="m318.021 142.427c-4.143 0-7.5 3.358-7.5 7.5v12c0 4.142 3.357 7.5 7.5 7.5s7.5-3.358 7.5-7.5v-12c0-4.142-3.358-7.5-7.5-7.5z"/><path d="m276.963 155.915c-3.123-2.721-7.86-2.396-10.581.727-2.729 3.132-6.669 4.928-10.81 4.928s-8.081-1.796-10.81-4.928c-2.721-3.123-7.459-3.448-10.581-.727-3.123 2.721-3.449 7.458-.728 10.582 5.578 6.402 13.64 10.073 22.118 10.073 8.479 0 16.54-3.671 22.118-10.073 2.724-3.123 2.397-7.86-.726-10.582z"/></g></g></svg>